<?xml version="1.0" encoding="UTF-8"?>
<svg id="layer" xmlns="http://www.w3.org/2000/svg" version="1.1" viewBox="0 0 283.5 170.1">
  <!-- Generator: Adobe Illustrator 29.8.1, SVG Export Plug-In . SVG Version: 2.1.1 Build 2)  -->
  <defs>
    <style>
      .st0 {
        fill: #ff0096;
      }
    </style>
  </defs>
  <path class="st0" d="M35.6,118.1l-1-3.9-2.3,3.9h3.3ZM39.3,122.4h-2.6l-.6-2.5h-4.7l-1.5,2.5h-2.6l6.1-10.2c.5-.8,1.1-1.1,2-1.1s.7.1,1,.3c.3.2.5.5.6.8l2.5,10.2Z"/>
  <path class="st0" d="M51.4,113.7c0,.9-.6,1.8-1.7,2.6-.9.6-1.9,1-3.1,1.2l3.7,4.9h-3l-2.8-3.7c-.4-.5-.6-.8-.6-1,0-.6.4-1.1,1.3-1.4.8-.3,1.6-.5,2.3-.8.8-.4,1.3-.8,1.3-1.4s-.2-.7-.7-.9c-.4-.2-.8-.3-1.2-.3h-2.5l-1.7,9.6h-2.5l1.8-10.2c0-.3.3-.6.8-.8.4-.2.8-.3,1.2-.3h3.4c.9,0,1.8.2,2.6.6,1,.5,1.5,1.2,1.5,2"/>
  <path class="st0" d="M61.8,111l-.3,1.7h-5.7l-.5,3.1h3.6l-.3,1.7h-3.6l-.5,3.1h5.7l-.3,1.7h-6.6c-.3,0-.7,0-1-.2-.4-.2-.5-.5-.5-.8h0c0-.1,1.6-9.2,1.6-9.2,0-.3.3-.6.8-.8.4-.2.8-.3,1.2-.3h6.6Z"/>
  <path class="st0" d="M73.1,111l-1.8,10.2c-.1.6-.6.9-.7.9-.1,0-.4.2-1.1.2-.4,0-.9-.4-1.2-1.2l-2.7-5.9-1.3,7.1h-2.5l1.8-10.2c0-.3.3-.6.7-.8.4-.2.7-.3,1.1-.3.6,0,1.1.5,1.5,1.3l2.5,5.7,1.2-6.9h2.6Z"/>
  <path class="st0" d="M80.4,118.1l-1-3.9-2.4,3.9h3.3ZM84.1,122.4h-2.6l-.6-2.5h-4.7l-1.5,2.5h-2.6l6.1-10.2c.5-.8,1.1-1.1,2-1.1s.7.1,1,.3c.3.2.5.5.6.8l2.5,10.2Z"/>
  <path d="M52.2,126.3h0c0,.1-1.2.1-1.2.1,0-.2,0-.4-.3-.5-.2-.1-.4-.2-.6-.2s-.4,0-.7.2c-.3.1-.4.3-.4.5l-.4,2.4h0c0,.3.1.4.3.5.2,0,.4.1.6.1s.4,0,.6-.2c.2-.1.4-.3.4-.5h1.2c0,.4-.4.8-1,1.1-.5.2-1,.4-1.5.4s-.8-.1-1.2-.3c-.5-.2-.7-.6-.7-1v-.2s.4-2.4.4-2.4c0-.4.4-.8,1-1.1.5-.2,1-.4,1.5-.4s.9.1,1.2.3c.5.3.7.6.7,1"/>
  <polygon points="54.6 125 53.7 130.3 52.5 130.3 53.4 125 54.6 125"/>
  <path d="M60.1,125l-.8,4.7c0,.2-.1.3-.3.4-.2,0-.3.1-.5.1-.3,0-.5-.2-.7-.5l-1.2-2.7-.6,3.2h-1.2l.8-4.7c0-.2.1-.3.3-.4.2,0,.3-.1.5-.1.3,0,.5.2.7.5l1.2,2.7.6-3.2h1.2Z"/>
  <path d="M65,125v.8h-2.8l-.2,1.4h1.7v.8h-1.8l-.2,1.4h2.7v.8h-3.2c-.2,0-.3,0-.4-.1-.2,0-.2-.2-.2-.4h0c0,0,.7-4.3.7-4.3,0-.2.1-.3.3-.4.2,0,.4-.1.5-.1h3.1Z"/>
  <path d="M72.3,125.5h0c0,0-.8,4.8-.8,4.8h-1.2l.5-3-1.8,2.5c-.2.4-.5.5-.9.5s-.6-.2-.7-.5l-.9-2.5-.5,3h-1.2l.8-4.7c0-.2.1-.3.3-.4.2,0,.3-.1.5-.1.3,0,.6.2.7.5l1.2,3.3,2.4-3.3c.2-.4.5-.5.9-.5h.4c0,.1.2.5.2.5"/>
  <path d="M76,128.3l-.4-1.8-1.1,1.8h1.5ZM77.7,130.3h-1.2l-.3-1.2h-2.2l-.7,1.2h-1.2l2.8-4.7c.2-.4.5-.5.9-.5s.3,0,.5.1.2.2.3.4l1.2,4.7Z"/>
  <path d="M82.9,126.3h0c0,.1-1.2.1-1.2.1,0-.2-.1-.4-.3-.5-.2-.1-.4-.2-.6-.2s-.5,0-.7.2c-.3.2-.4.4-.4.6s.1.3.3.4c.2,0,.4.1.6.1.4,0,.8.1,1.2.3.5.2.7.6.7,1s-.3,1-.9,1.3c-.5.3-1,.4-1.6.4s-.9-.1-1.2-.3c-.5-.3-.7-.6-.7-1h0c0-.1,1.2-.1,1.2-.1,0,.2,0,.4.3.5.2.1.4.2.6.2s.5,0,.7-.2c.3-.2.4-.4.4-.6s-.1-.3-.3-.4c-.2,0-.4-.1-.6-.1-.4,0-.8-.1-1.2-.3-.5-.2-.7-.6-.7-1s.3-1,.9-1.3c.5-.3,1-.4,1.6-.4s.9.1,1.2.3c.5.2.7.6.7,1"/>
  <path class="st0" d="M64.8,90l-3.2-13-7.8,13h11ZM77,104.1h-8.8l-2-8.4h-15.8l-5.1,8.4h-8.8l20.2-33.8c1.5-2.5,3.7-3.7,6.7-3.7s2.4.3,3.4,1c1,.7,1.6,1.6,1.9,2.7l8.3,33.8Z"/>
  <path d="M69.6,56.2l-1.1-4.5-2.7,4.5h3.8ZM73.8,61h-3l-.7-2.9h-5.4l-1.7,2.9h-3l6.9-11.6c.5-.9,1.3-1.3,2.3-1.3s.8.1,1.2.3c.3.2.6.5.7.9l2.8,11.6Z"/>
  <path class="st0" d="M232.9,66.5l-6,33.8c-.4,1.9-1.9,2.8-2.3,3.1-.4.2-1.4.7-3.7.7-1.4,0-2.8-1.4-4-4l-8.9-19.6-4.3,23.6h-8.4l6-33.8c.2-1.1,1-2,2.3-2.7,1.2-.7,2.4-1,3.6-1,2.1,0,3.7,1.8,4.9,4.3l8.4,18.7,4-23h8.5Z"/>
  <path d="M87.2,48.1l-2,11.6c-.1.6-.6,1-.8,1-.1,0-.5.2-1.3.2-.5,0-1-.5-1.4-1.4l-3-6.7-1.5,8.1h-2.9l2-11.6c0-.4.3-.7.8-.9.4-.2.8-.3,1.2-.3.7,0,1.3.6,1.7,1.5l2.9,6.4,1.4-7.9h2.9Z"/>
  <path class="st0" d="M135.1,66.5h-16.2c-2,0-3.7,1.4-4,3.4h0s-.4,2.2-.4,2.2h11.7l-5,28.2v.4c0,1,.6,1.9,1.8,2.5,1,.5,5,.8,6.1.8l.9-5.6,2.8-15.9,1.8-10.3h8.3c1.9,0,3.5-1.3,3.8-3.2h0s.4-2.4.4-2.4h-12Z"/>
  <g>
    <polygon class="st0" points="150.3 66.5 146.3 89.3 143.7 104.1 152.2 104.1 156.2 81.2 158.8 66.5 150.3 66.5"/>
    <polygon class="st0" points="158.8 66.5 158.8 66.5 158.8 66.5 158.8 66.5"/>
  </g>
  <path class="st0" d="M113.5,75.9v1h-8.5c0-1.5-.7-2.7-2.1-3.5-1.2-.8-2.6-1.2-4.1-1.2s-3.2.4-4.8,1.2c-1.8,1-2.9,2.1-3.1,3.5l-3,16.9v.5c0,1.3.7,2.3,2.2,3.1,1.3.7,2.7,1,4.1,1s3.1-.4,4.6-1.2c1.6-.9,2.7-2,3.2-3.5h8.4c-.7,3.1-3,5.6-6.9,7.7-3.4,1.8-6.9,2.7-10.5,2.7s-6-.7-8.8-2.2c-3.3-1.8-5-4.1-5-6.9v-1.2c0,0,3.1-16.9,3.1-16.9.5-3.1,2.8-5.6,6.9-7.7,3.5-1.8,6.9-2.7,10.5-2.7s6.1.7,8.8,2.3c3.3,1.8,5,4.2,5,7.1"/>
  <path class="st0" d="M194.6,75.9c0-2.9-1.6-5.3-5-7.1-2.7-1.6-5.6-2.3-8.8-2.3s-7,.9-10.5,2.7c-4.1,2-6.3,4.6-6.9,7.7l-3.1,16.9v1.2c0,2.9,1.6,5.2,4.9,6.9,2.8,1.4,5.7,2.2,8.8,2.2s7.1-.9,10.5-2.7c3.8-2,6.1-4.4,6.8-7.3,0,0,0,0,0,0v-.3c0,0,0,0,0,0h0l3.1-16.9v-1ZM186,77.1l-3,16.6h0c-.5,1.4-1.6,2.6-3.2,3.5-1.5.8-3,1.2-4.6,1.2s-2.8-.3-4.1-1c-1.5-.8-2.2-1.8-2.2-3.1v-.5c0,0,3.1-16.9,3.1-16.9.3-1.4,1.3-2.6,3.1-3.5,1.6-.7,3.1-1.2,4.8-1.2s3,.3,4.1,1.2c1.4.9,2.1,2,2.1,3.5h0c0,0,0,.1,0,.2Z"/>
  <path d="M99.6,51.4c0-1-.6-1.8-1.7-2.4-.9-.5-1.9-.8-3-.8s-.2,0-.2,0h-2.2s-2.9,0-2.9,0l-2.3,12.8s4.3,0,5.3,0,2.4-.3,3.6-.9c1.3-.7,2.1-1.5,2.3-2.5,0,0,0,0,0,0h0c0-.1,0-.1,0-.1h0l1-5.8v-.3ZM96.7,51.8l-1,5.7h0c-.2.5-.5.9-1.1,1.2-.5.3-1,.4-1.6.4h-2.5l1.6-9h2.4c.5,0,1,.1,1.4.4.5.3.7.7.7,1.2h0s0,0,0,0Z"/>
  <polygon points="119.4 60.6 127.8 60.6 130 48.1 121.6 48.1 119.4 60.6"/>
  <polygon points="103.1 60.6 111.6 60.6 113.7 48.1 105.3 48.1 103.1 60.6"/>
  <polygon points="135.7 60.6 144.1 60.6 146.3 48.1 137.9 48.1 135.7 60.6"/>
  <polygon points="151.9 60.6 160.4 60.6 162.6 48.1 154.1 48.1 151.9 60.6"/>
  <polygon points="168.2 60.6 176.7 60.6 178.8 48.1 170.4 48.1 168.2 60.6"/>
  <polygon points="184.5 60.6 192.9 60.6 195.1 48.1 186.7 48.1 184.5 60.6"/>
  <polygon points="200.8 60.6 209.2 60.6 211.4 48.1 203 48.1 200.8 60.6"/>
  <polygon points="217 60.6 225.5 60.6 227.7 48.1 219.2 48.1 217 60.6"/>
  <polygon points="233.3 60.6 241.8 60.6 243.9 48.1 235.5 48.1 233.3 60.6"/>
  <polygon points="108.3 122.4 116.7 122.4 118.9 109.9 110.5 109.9 108.3 122.4"/>
  <polygon points="92 122.4 100.5 122.4 102.6 109.9 94.2 109.9 92 122.4"/>
  <polygon points="124.6 122.4 133 122.4 135.2 109.9 126.8 109.9 124.6 122.4"/>
  <polygon points="140.8 122.4 149.3 122.4 151.5 109.9 143 109.9 140.8 122.4"/>
  <polygon points="157.1 122.4 165.6 122.4 167.7 109.9 159.3 109.9 157.1 122.4"/>
  <polygon points="173.4 122.4 181.8 122.4 184 109.9 175.6 109.9 173.4 122.4"/>
  <polygon points="189.7 122.4 198.1 122.4 200.3 109.9 191.9 109.9 189.7 122.4"/>
  <polygon points="205.9 122.4 214.4 122.4 216.6 109.9 208.1 109.9 205.9 122.4"/>
  <polygon points="222.2 122.4 230.7 122.4 232.8 109.9 224.4 109.9 222.2 122.4"/>
  <g>
    <polygon class="st0" points="245 88.2 242.4 103 250.8 103 254.8 80.1 260.2 48.1 251.7 48.1 245 88.2"/>
    <polygon class="st0" points="239 122.4 247.4 122.4 249.6 109.9 241.2 109.9 239 122.4"/>
    <polygon class="st0" points="257.4 65.4 257.4 65.4 257.4 65.4 257.4 65.4"/>
  </g>
</svg>